<svg xmlns="http://www.w3.org/2000/svg" width="876" height="144" viewBox="0 0 876 144" role="img" aria-label="Dynasty heatmap of college football programs 2014-2025" style="font-family: system-ui, -apple-system, sans-serif; background: #fff;"><g class="dh-header"><text x="246" y="46" text-anchor="middle" font-size="13" font-weight="700" fill="#0a0a0a">2014</text><text x="298" y="46" text-anchor="middle" font-size="13" font-weight="700" fill="#0a0a0a">2015</text><text x="350" y="46" text-anchor="middle" font-size="13" font-weight="700" fill="#0a0a0a">2016</text><text x="402" y="46" text-anchor="middle" font-size="13" font-weight="700" fill="#0a0a0a">2017</text><text x="454" y="46" text-anchor="middle" font-size="13" font-weight="700" fill="#0a0a0a">2018</text><text x="506" y="46" text-anchor="middle" font-size="13" font-weight="700" fill="#0a0a0a">2019</text><text x="558" y="46" text-anchor="middle" font-size="13" font-weight="700" fill="#0a0a0a">2020</text><text x="610" y="46" text-anchor="middle" font-size="13" font-weight="700" fill="#0a0a0a">2021</text><text x="662" y="46" text-anchor="middle" font-size="13" font-weight="700" fill="#0a0a0a">2022</text><text x="714" y="46" text-anchor="middle" font-size="13" font-weight="700" fill="#0a0a0a">2023</text><text x="766" y="46" text-anchor="middle" font-size="13" font-weight="700" fill="#0a0a0a">2024</text><text x="818" y="46" text-anchor="middle" font-size="13" font-weight="700" fill="#0a0a0a">2025</text><line x1="0" y1="58" x2="876" y2="58" stroke="#999" stroke-width="1"/></g><g class="dh-rows"></g><g class="dh-legend"><text x="208" y="92" text-anchor="end" font-size="11" font-weight="700" fill="#0a0a0a">Within-year percentile →</text><rect x="220.0" y="80" width="12.0" height="14" fill="#1f3a68" stroke="none"/><rect x="232.0" y="80" width="12.0" height="14" fill="#2b4875" stroke="none"/><rect x="244.0" y="80" width="12.0" height="14" fill="#385582" stroke="none"/><rect x="256.0" y="80" width="12.0" height="14" fill="#44638e" stroke="none"/><rect x="268.0" y="80" width="12.0" height="14" fill="#51709b" stroke="none"/><rect x="280.0" y="80" width="12.0" height="14" fill="#5d7ea8" stroke="none"/><rect x="292.0" y="80" width="12.0" height="14" fill="#768fae" stroke="none"/><rect x="304.0" y="80" width="12.0" height="14" fill="#8ea0b3" stroke="none"/><rect x="316.0" y="80" width="12.0" height="14" fill="#a7b0b9" stroke="none"/><rect x="328.0" y="80" width="12.0" height="14" fill="#bfc1be" stroke="none"/><rect x="340.0" y="80" width="12.0" height="14" fill="#d8d2c4" stroke="none"/><rect x="352.0" y="80" width="12.0" height="14" fill="#dac1a8" stroke="none"/><rect x="364.0" y="80" width="12.0" height="14" fill="#dbaf8d" stroke="none"/><rect x="376.0" y="80" width="12.0" height="14" fill="#dd9e71" stroke="none"/><rect x="388.0" y="80" width="12.0" height="14" fill="#de8c56" stroke="none"/><rect x="400.0" y="80" width="12.0" height="14" fill="#e07b3a" stroke="none"/><rect x="412.0" y="80" width="12.0" height="14" fill="#d36733" stroke="none"/><rect x="424.0" y="80" width="12.0" height="14" fill="#c6532c" stroke="none"/><rect x="436.0" y="80" width="12.0" height="14" fill="#ba4026" stroke="none"/><rect x="448.0" y="80" width="12.0" height="14" fill="#ad2c1f" stroke="none"/><rect x="460.0" y="80" width="12.0" height="14" fill="#a01818" stroke="none"/><text x="220" y="108" font-size="10" text-anchor="middle" fill="#666">0</text><text x="340" y="108" font-size="10" text-anchor="middle" fill="#666">50</text><text x="460" y="108" font-size="10" text-anchor="middle" fill="#666">100</text><text x="496" y="92" font-size="11" fill="#666">Empty = not in FBS that year</text></g></svg>